<svg xmlns="http://www.w3.org/2000/svg" width="600" height="400" viewBox="0 0 600 400" fill="none">
  <rect width="600" height="400" fill="#F8F9FA"/>
  
  <!-- Background Elements -->
  <circle cx="500" cy="80" r="40" fill="#E9ECEF"/>
  <circle cx="100" cy="320" r="50" fill="#E9ECEF"/>
  <rect x="400" y="300" width="120" height="60" rx="10" fill="#E9ECEF"/>
  
  <!-- Computer/Screen -->
  <rect x="150" y="120" width="300" height="200" rx="10" fill="#0D6EFD" opacity="0.9"/>
  <rect x="160" y="130" width="280" height="170" rx="5" fill="white"/>
  
  <!-- Base of Computer -->
  <rect x="250" y="320" width="100" height="20" rx="5" fill="#6C757D"/>
  <rect x="270" y="340" width="60" height="10" rx="3" fill="#6C757D"/>
  
  <!-- Person silhouette (interviewee) -->
  <circle cx="230" cy="170" r="20" fill="#6C757D"/>
  <rect x="210" y="190" width="40" height="60" rx="5" fill="#6C757D"/>
  
  <!-- AI Interviewer representation -->
  <circle cx="370" cy="170" r="20" stroke="#0D6EFD" stroke-width="3" fill="none"/>
  <circle cx="360" cy="165" r="3" fill="#0D6EFD"/>
  <circle cx="380" cy="165" r="3" fill="#0D6EFD"/>
  <path d="M355 180 C365 190, 375 190, 385 180" stroke="#0D6EFD" stroke-width="2" fill="none"/>
  
  <!-- Connection lines -->
  <path d="M250 170 L350 170" stroke="#0D6EFD" stroke-width="2" stroke-dasharray="5 3"/>
  
  <!-- Text elements -->
  <rect x="190" y="220" width="80" height="10" rx="5" fill="#E9ECEF"/>
  <rect x="190" y="240" width="60" height="10" rx="5" fill="#E9ECEF"/>
  
  <rect x="330" y="220" width="80" height="10" rx="5" fill="#CFE2FF"/>
  <rect x="330" y="240" width="60" height="10" rx="5" fill="#CFE2FF"/>
  
  <!-- Abstract data visualization elements -->
  <rect x="190" y="270" width="20" height="15" rx="3" fill="#0D6EFD" opacity="0.7"/>
  <rect x="220" y="265" width="20" height="20" rx="3" fill="#0D6EFD" opacity="0.8"/>
  <rect x="250" y="260" width="20" height="25" rx="3" fill="#0D6EFD"/>
  <rect x="280" y="255" width="20" height="30" rx="3" fill="#0D6EFD" opacity="0.9"/>
  <rect x="310" y="250" width="20" height="35" rx="3" fill="#0D6EFD"/>
  <rect x="340" y="260" width="20" height="25" rx="3" fill="#0D6EFD" opacity="0.8"/>
  <rect x="370" y="270" width="20" height="15" rx="3" fill="#0D6EFD" opacity="0.7"/>
</svg> 